<mxfile host="app.diagrams.net" modified="2024-03-05T02:57:00.624Z" agent="Mozilla/5.0 (Windows NT 10.0; Win64; x64) AppleWebKit/537.36 (KHTML, like Gecko) Chrome/121.0.0.0 Safari/537.36 OPR/107.0.0.0" version="24.0.1" etag="rW6xf_ykBvb8YCpb5I9R" type="github">
  <diagram name="PÃ¡gina-1" id="1khIDhRUdGHAHW7JTtjo">
    <mxGraphModel>
      <root>
        <mxCell id="0" />
        <mxCell id="1" parent="0" />
      </root>
    </mxGraphModel>
  </diagram>
</mxfile>
